<mxfile host="Electron" modified="2022-11-17T07:16:29.202Z" agent="5.0 (Windows NT 10.0; Win64; x64) AppleWebKit/537.36 (KHTML, like Gecko) draw.io/20.3.0 Chrome/104.0.5112.114 Electron/20.1.3 Safari/537.36" etag="Pvn38wmO0lPI5j4D08Vc" compressed="false" version="20.3.0" type="device">
  <diagram id="zFKrOnigKPluf2Oz2b-I" name="Page-1">
    <mxGraphModel dx="1408" dy="851" grid="1" gridSize="10" guides="1" tooltips="1" connect="1" arrows="1" fold="1" page="1" pageScale="1" pageWidth="1169" pageHeight="827" math="0" shadow="0">
      <root>
        <mxCell id="0" />
        <mxCell id="1" parent="0" />
        <mxCell id="tS5QIadSxO7oRpRXlOpb-1" value="id Components" style="shape=umlFrame;whiteSpace=wrap;html=1;width=120;height=30;boundedLbl=1;verticalAlign=middle;align=left;spacingLeft=5;" parent="1" vertex="1">
          <mxGeometry x="245" y="60" width="765" height="460" as="geometry" />
        </mxCell>
        <mxCell id="tS5QIadSxO7oRpRXlOpb-12" value="«component»&lt;br&gt;&lt;b&gt;Database&lt;/b&gt;" style="html=1;dropTarget=0;" parent="1" vertex="1">
          <mxGeometry x="310" y="130" width="180" height="90" as="geometry" />
        </mxCell>
        <mxCell id="tS5QIadSxO7oRpRXlOpb-13" value="" style="shape=module;jettyWidth=8;jettyHeight=4;" parent="tS5QIadSxO7oRpRXlOpb-12" vertex="1">
          <mxGeometry x="1" width="20" height="20" relative="1" as="geometry">
            <mxPoint x="-27" y="7" as="offset" />
          </mxGeometry>
        </mxCell>
        <mxCell id="tS5QIadSxO7oRpRXlOpb-18" value="" style="endArrow=circle;html=1;rounded=0;align=center;verticalAlign=top;endFill=0;labelBackgroundColor=none;endSize=2;" parent="1" edge="1">
          <mxGeometry relative="1" as="geometry">
            <mxPoint x="490" y="175" as="sourcePoint" />
            <mxPoint x="550" y="175" as="targetPoint" />
          </mxGeometry>
        </mxCell>
        <mxCell id="tS5QIadSxO7oRpRXlOpb-20" value="PersistenceProvider" style="edgeLabel;html=1;align=center;verticalAlign=middle;resizable=0;points=[];" parent="tS5QIadSxO7oRpRXlOpb-18" vertex="1" connectable="0">
          <mxGeometry x="0.3974" y="-1" relative="1" as="geometry">
            <mxPoint x="20" y="-16" as="offset" />
          </mxGeometry>
        </mxCell>
        <mxCell id="tS5QIadSxO7oRpRXlOpb-31" style="edgeStyle=orthogonalEdgeStyle;rounded=0;orthogonalLoop=1;jettySize=auto;html=1;exitX=0.5;exitY=1;exitDx=0;exitDy=0;endArrow=oval;endFill=0;" parent="1" source="tS5QIadSxO7oRpRXlOpb-21" edge="1">
          <mxGeometry relative="1" as="geometry">
            <mxPoint x="720" y="300" as="targetPoint" />
          </mxGeometry>
        </mxCell>
        <mxCell id="tS5QIadSxO7oRpRXlOpb-33" value="VotingProvider" style="edgeLabel;html=1;align=center;verticalAlign=middle;resizable=0;points=[];" parent="tS5QIadSxO7oRpRXlOpb-31" vertex="1" connectable="0">
          <mxGeometry x="0.3429" y="2" relative="1" as="geometry">
            <mxPoint as="offset" />
          </mxGeometry>
        </mxCell>
        <mxCell id="tS5QIadSxO7oRpRXlOpb-21" value="«component»&lt;br&gt;&lt;b&gt;REST API&lt;/b&gt;" style="html=1;dropTarget=0;" parent="1" vertex="1">
          <mxGeometry x="630" y="140" width="180" height="90" as="geometry" />
        </mxCell>
        <mxCell id="tS5QIadSxO7oRpRXlOpb-22" value="" style="shape=module;jettyWidth=8;jettyHeight=4;" parent="tS5QIadSxO7oRpRXlOpb-21" vertex="1">
          <mxGeometry x="1" width="20" height="20" relative="1" as="geometry">
            <mxPoint x="-27" y="7" as="offset" />
          </mxGeometry>
        </mxCell>
        <mxCell id="tS5QIadSxO7oRpRXlOpb-32" style="edgeStyle=orthogonalEdgeStyle;rounded=0;orthogonalLoop=1;jettySize=auto;html=1;exitX=0.5;exitY=0;exitDx=0;exitDy=0;endArrow=halfCircle;endFill=0;endSize=2;startSize=2;" parent="1" source="tS5QIadSxO7oRpRXlOpb-23" edge="1">
          <mxGeometry relative="1" as="geometry">
            <mxPoint x="720" y="310" as="targetPoint" />
          </mxGeometry>
        </mxCell>
        <mxCell id="tS5QIadSxO7oRpRXlOpb-23" value="«component»&lt;br&gt;&lt;b&gt;Web Application&lt;/b&gt;" style="html=1;dropTarget=0;" parent="1" vertex="1">
          <mxGeometry x="630" y="350" width="180" height="90" as="geometry" />
        </mxCell>
        <mxCell id="tS5QIadSxO7oRpRXlOpb-24" value="" style="shape=module;jettyWidth=8;jettyHeight=4;" parent="tS5QIadSxO7oRpRXlOpb-23" vertex="1">
          <mxGeometry x="1" width="20" height="20" relative="1" as="geometry">
            <mxPoint x="-27" y="7" as="offset" />
          </mxGeometry>
        </mxCell>
        <mxCell id="tS5QIadSxO7oRpRXlOpb-29" value="" style="endArrow=halfCircle;html=1;rounded=0;align=center;verticalAlign=top;endFill=0;labelBackgroundColor=none;endSize=2;exitX=0.003;exitY=0.382;exitDx=0;exitDy=0;exitPerimeter=0;" parent="1" source="tS5QIadSxO7oRpRXlOpb-21" edge="1">
          <mxGeometry relative="1" as="geometry">
            <mxPoint x="580" y="175" as="sourcePoint" />
            <mxPoint x="554.9999999999999" y="174.98013839056892" as="targetPoint" />
          </mxGeometry>
        </mxCell>
      </root>
    </mxGraphModel>
  </diagram>
</mxfile>
